HIERARCHY
ROOT Hips
{
	OFFSET 0.000000 0.000000 0.000000
	CHANNELS 6 Xposition Yposition Zposition Xrotation Yrotation Zrotation
	JOINT LeftUpLeg_virtual
	{
		OFFSET 0.000000 0.000000 0.000000
		CHANNELS 3 Xrotation Yrotation Zrotation
		JOINT LeftUpLeg
		{
			OFFSET 11.394100 -6.187798 -0.413800
			CHANNELS 3 Xrotation Yrotation Zrotation
			JOINT LeftLeg
			{
				OFFSET 0.430247 -32.302673 3.732800
				CHANNELS 3 Xrotation Yrotation Zrotation
				JOINT LeftFoot
				{
					OFFSET -0.430247 -48.264931 -6.423300
					CHANNELS 3 Xrotation Yrotation Zrotation
					JOINT LeftToeBase
					{
						OFFSET 4.230900 -16.068199 23.438400
						CHANNELS 3 Xrotation Yrotation Zrotation
						JOINT LeftToe_End
						{
							OFFSET 4.510700 0.695400 19.974600
							CHANNELS 3 Xrotation Yrotation Zrotation
							End Site
							{
								OFFSET 0 0 0
							}
						}
					}
				}
			}
		}
	}
	JOINT RightUpLeg_virtual
	{
		OFFSET 0.000000 0.000000 0.000000
		CHANNELS 3 Xrotation Yrotation Zrotation
		JOINT RightUpLeg
		{
			OFFSET -11.333700 -6.187798 -0.413800
			CHANNELS 3 Xrotation Yrotation Zrotation
			JOINT RightLeg
			{
				OFFSET -0.430392 -32.302628 3.733000
				CHANNELS 3 Xrotation Yrotation Zrotation
				JOINT RightFoot
				{
					OFFSET 0.430392 -48.264973 -6.423500
					CHANNELS 3 Xrotation Yrotation Zrotation
					JOINT RightToeBase
					{
						OFFSET -4.230900 -16.068199 23.438400
						CHANNELS 3 Xrotation Yrotation Zrotation
						JOINT RightToe_End
						{
							OFFSET -4.510700 0.695400 19.974600
							CHANNELS 3 Xrotation Yrotation Zrotation
							End Site
							{
								OFFSET 0 0 0
							}
						}
					}
				}
			}
		}
	}
	JOINT Spine_virtual
	{
		OFFSET 0.000000 0.000000 0.000000
		CHANNELS 3 Xrotation Yrotation Zrotation
		JOINT Spine
		{
			OFFSET -0.002400 12.777504 0.315300
			CHANNELS 3 Xrotation Yrotation Zrotation
			JOINT Spine1
			{
				OFFSET -0.002067 5.816869 0.032633
				CHANNELS 3 Xrotation Yrotation Zrotation
				JOINT Spine1_split
				{
					OFFSET -0.002067 5.816869 0.032633
					CHANNELS 3 Xrotation Yrotation Zrotation
					JOINT Spine2
					{
						OFFSET -0.002067 5.816869 0.032633
						CHANNELS 3 Xrotation Yrotation Zrotation
						JOINT Neck_virtual
						{
							OFFSET 0.000000 0.000000 0.000000
							CHANNELS 3 Xrotation Yrotation Zrotation
							JOINT Neck
							{
								OFFSET -0.003700 21.199493 -0.826900
								CHANNELS 3 Xrotation Yrotation Zrotation
								JOINT Head
								{
									OFFSET 0.000000 20.442200 4.834800
									CHANNELS 3 Xrotation Yrotation Zrotation
									JOINT HeadTop_End
									{
										OFFSET 0.000000 34.668396 4.968400
										CHANNELS 3 Xrotation Yrotation Zrotation
										End Site
										{
											OFFSET 0 0 0
										}
									}
								}
							}
						}
						JOINT LeftShoulder_virtual
						{
							OFFSET 0.000000 0.000000 0.000000
							CHANNELS 3 Xrotation Yrotation Zrotation
							JOINT LeftShoulder
							{
								OFFSET 3.288150 8.794197 -1.372250
								CHANNELS 3 Xrotation Yrotation Zrotation
								JOINT LeftShoulder_split
								{
									OFFSET 3.288150 8.794197 -1.372250
									CHANNELS 3 Xrotation Yrotation Zrotation
									JOINT LeftArm
									{
										OFFSET 11.953299 -2.279007 -0.146200
										CHANNELS 3 Xrotation Yrotation Zrotation
										JOINT LeftForeArm
										{
											OFFSET 18.448900 0.000000 0.000000
											CHANNELS 3 Xrotation Yrotation Zrotation
											JOINT LeftHand
											{
												OFFSET 29.527798 0.000000 0.000000
												CHANNELS 3 Xrotation Yrotation Zrotation
												End Site
												{
													OFFSET 0 0 0
												}
											}
										}
									}
								}
							}
						}
						JOINT RightShoulder_virtual
						{
							OFFSET 0.000000 0.000000 0.000000
							CHANNELS 3 Xrotation Yrotation Zrotation
							JOINT RightShoulder
							{
								OFFSET -3.249400 8.794197 -1.372250
								CHANNELS 3 Xrotation Yrotation Zrotation
								JOINT RightShoulder_split
								{
									OFFSET -3.249400 8.794197 -1.372250
									CHANNELS 3 Xrotation Yrotation Zrotation
									JOINT RightArm
									{
										OFFSET -11.953299 -2.279007 -0.146200
										CHANNELS 3 Xrotation Yrotation Zrotation
										JOINT RightForeArm
										{
											OFFSET -18.448900 0.000000 0.000000
											CHANNELS 3 Xrotation Yrotation Zrotation
											JOINT RightHand
											{
												OFFSET -29.527802 0.000000 0.000000
												CHANNELS 3 Xrotation Yrotation Zrotation
												End Site
												{
													OFFSET 0 0 0
												}
											}
										}
									}
								}
							}
						}
					}
				}
			}
		}
	}
}
MOTION
Frames: 11
Frame Time: 0.03333333
55.935871 102.185135 28.330563 0.000000 0.000000 0.000000 6.890383 82.439919 -3.503841 -35.369633 -4.408315 -2.897861 9.955229 4.230153 3.666017 16.644493 -16.898646 -0.787264 7.107713 0.305197 -1.597663 0.000000 0.000000 0.000000 15.766867 84.306937 -12.178719 12.007412 -12.295748 2.558819 15.761440 11.232551 -6.350381 -6.154548 -27.319934 12.691063 -26.064191 11.601910 -10.109799 0.000000 0.000000 0.000000 9.932768 80.875915 -7.476546 4.788425 11.039279 -2.830384 -2.114224 9.055664 -2.646995 0.181318 -0.217186 -0.017856 0.000000 0.000000 0.000000 -1.547464 11.189451 -2.242684 16.118637 -15.773769 9.259121 -10.257331 -69.119786 -14.519838 0.000000 0.000000 0.000000 -3.816912 10.207437 -2.759233 -6.368568 -10.511805 -14.004136 4.459358 5.972237 -5.169566 45.563413 -58.519387 -12.647463 -11.518904 -58.902138 -5.116600 0.000000 0.000000 0.000000 -2.448458 9.939423 -3.090582 -3.211333 22.338383 14.574601 -7.586919 -0.978965 2.195174 0.047810 41.976946 56.453962 3.521800 28.498498 2.265049 0.000000 0.000000 0.000000 
55.218056 102.088226 28.030758 0.000000 0.000000 0.000000 4.877696 80.567136 -1.561421 -35.099400 -3.906106 -2.450131 9.683397 5.554014 3.618372 16.717177 -15.259223 -1.042665 7.594876 0.394271 -2.115206 0.000000 0.000000 0.000000 11.550664 82.344986 -8.005952 13.142724 -12.850657 2.320445 14.203249 10.108378 -6.291890 -11.459568 -28.348294 10.110324 -19.825713 11.021672 -11.372260 0.000000 0.000000 0.000000 8.492817 79.201672 -6.079088 4.953595 10.417966 -2.807787 -2.303672 8.458131 -2.058752 0.117924 -0.193804 -0.034198 0.000000 0.000000 0.000000 -1.721065 10.556015 -1.673377 16.143217 -14.967735 7.237219 -10.789886 -64.833542 -13.269619 0.000000 0.000000 0.000000 -3.986884 9.600002 -2.283897 -6.231880 -10.180394 -13.926335 3.885278 6.105889 -5.161942 44.405543 -58.798817 -14.031002 -10.967581 -56.749699 -5.154392 0.000000 0.000000 0.000000 -2.705314 9.402546 -2.545196 -3.178028 22.258811 14.690613 -7.870870 -1.270945 2.830009 -0.529028 40.212909 56.548946 3.818009 28.198323 1.888913 0.000000 0.000000 0.000000 
54.500675 102.022049 27.748554 0.000000 0.000000 0.000000 3.276317 78.407805 -0.135697 -34.834180 -3.234805 -1.661567 9.622766 6.802284 3.478483 16.891835 -13.649611 -1.470261 8.017585 0.465852 -2.343871 0.000000 0.000000 0.000000 8.575939 80.288594 -5.160311 14.442186 -13.538048 2.202884 11.657933 8.673507 -6.202455 -15.947549 -29.862127 7.920357 -13.343662 10.542941 -12.900288 0.000000 0.000000 0.000000 6.811739 77.497826 -4.557502 5.179519 9.780083 -2.671193 -2.391096 7.791938 -1.563802 0.074641 -0.172064 -0.017039 0.000000 0.000000 0.000000 -1.841075 9.843455 -1.202270 15.925938 -14.099880 5.141274 -11.518870 -60.373873 -12.111253 0.000000 0.000000 0.000000 -4.109678 8.916498 -1.911321 -6.209763 -10.045261 -13.812832 3.463213 6.393477 -5.202973 42.672495 -59.083896 -15.825321 -10.580103 -55.123882 -5.315293 0.000000 0.000000 0.000000 -2.802225 8.798913 -2.070980 -3.140241 22.237781 14.759591 -7.959295 -1.762409 3.369854 -0.515415 38.929872 56.115898 3.926386 28.769354 1.552506 0.000000 0.000000 0.000000 
53.809616 101.922150 27.520107 0.000000 0.000000 0.000000 2.046035 75.995048 0.877895 -34.608070 -2.378305 -0.613292 9.902279 7.926681 3.261330 17.058826 -12.113163 -1.910532 8.123000 0.509293 -2.232556 0.000000 0.000000 0.000000 6.626631 78.104695 -3.365988 15.548934 -14.077754 2.118948 8.905884 7.560051 -6.180281 -18.415228 -31.439115 7.336087 -8.741247 10.265609 -14.414510 0.000000 0.000000 0.000000 5.086454 75.723036 -3.054377 5.479623 9.074946 -2.421009 -2.376153 7.049934 -1.155084 0.076678 -0.171169 0.007034 0.000000 0.000000 0.000000 -1.905441 9.044927 -0.817406 15.417807 -13.137833 3.009548 -12.196675 -55.624627 -10.996944 0.000000 0.000000 0.000000 -4.184100 8.153468 -1.627768 -6.298079 -10.125762 -13.753692 3.253588 6.785246 -5.148294 40.461528 -59.034343 -18.172823 -10.368372 -54.453642 -5.587176 0.000000 0.000000 0.000000 -2.766619 8.100990 -1.664362 -3.072583 22.211046 14.740890 -8.072607 -2.383061 3.893239 0.475321 38.181850 54.847621 3.913473 30.812250 1.198946 0.000000 0.000000 0.000000 
53.116467 101.764679 27.408606 0.000000 0.000000 0.000000 1.209247 73.331786 1.531411 -34.462331 -1.348925 0.620360 10.539455 8.877340 2.967533 17.144236 -10.722143 -2.223573 7.934072 0.528274 -1.864635 0.000000 0.000000 0.000000 5.154932 75.702470 -2.040260 16.259018 -14.457055 2.046652 6.664692 6.914704 -6.238548 -19.174153 -32.801471 8.076119 -5.440212 10.081946 -15.808654 0.000000 0.000000 0.000000 3.503116 73.850314 -1.705607 5.840610 8.287972 -2.071557 -2.267472 6.259004 -0.818698 0.118156 -0.177434 0.030642 0.000000 0.000000 0.000000 -1.905002 8.184818 -0.493551 14.594943 -12.043842 0.912959 -12.695517 -50.460959 -10.016274 0.000000 0.000000 0.000000 -4.203242 7.323525 -1.395072 -6.452060 -10.323892 -13.739520 3.162039 7.213556 -5.134100 37.828033 -58.423034 -21.168402 -10.394108 -54.920711 -5.977793 0.000000 0.000000 0.000000 -2.655802 7.322352 -1.313190 -2.968122 22.151651 14.620945 -8.181670 -3.037531 4.403430 2.514840 37.875585 52.699079 3.814419 34.511566 0.771934 0.000000 0.000000 0.000000 
52.331738 101.540146 27.336433 0.000000 0.000000 0.000000 0.522571 70.513493 2.066762 -34.380341 -0.141315 1.931835 11.458428 9.608118 2.622241 17.085845 -9.494461 -2.258393 7.552547 0.510966 -1.308112 0.000000 0.000000 0.000000 3.796693 73.022140 -0.827875 16.371200 -14.619050 1.930828 5.341671 6.767630 -6.316239 -19.438751 -33.565202 9.164406 -2.271986 9.803053 -16.949473 0.000000 0.000000 0.000000 2.111278 71.868944 -0.538046 6.215537 7.426170 -1.661624 -2.100262 5.460535 -0.534191 0.155336 -0.195310 0.041932 0.000000 0.000000 0.000000 -1.842286 7.299288 -0.213180 13.424965 -10.849451 -1.073368 -12.815226 -44.953542 -9.233289 0.000000 0.000000 0.000000 -4.175726 6.472637 -1.179503 -6.632243 -10.600922 -13.759879 3.093050 7.611839 -5.013328 35.178415 -57.281484 -24.516882 -10.588929 -56.326432 -6.433014 0.000000 0.000000 0.000000 -2.528901 6.493709 -0.999819 -2.831235 22.005784 14.410246 -8.210017 -3.552277 4.779402 5.271057 37.745012 50.104847 3.753483 39.757015 0.185750 0.000000 0.000000 0.000000 
51.437641 101.281120 27.300720 0.000000 0.000000 0.000000 0.017315 67.500328 2.481620 -34.240691 1.111992 3.189961 12.345552 9.979556 2.284541 16.880201 -8.427109 -2.001893 7.196800 0.437679 -0.677061 0.000000 0.000000 0.000000 2.467726 70.089359 0.324284 15.898619 -14.705472 1.653430 5.233689 6.926294 -6.367189 -19.540579 -33.474545 10.207614 0.342761 9.453595 -17.674875 0.000000 0.000000 0.000000 0.999054 69.663312 0.430808 6.520741 6.527937 -1.222299 -1.918023 4.701874 -0.283182 0.190000 -0.203124 0.019820 0.000000 0.000000 0.000000 -1.731701 6.451487 0.039202 11.882657 -9.601872 -2.895648 -12.589793 -39.465612 -8.708244 0.000000 0.000000 0.000000 -4.098497 5.649126 -0.963556 -6.787532 -10.866647 -13.744314 2.902113 7.676313 -4.732984 32.865921 -55.730946 -27.927561 -10.862898 -58.263208 -6.859614 0.000000 0.000000 0.000000 -2.412451 5.678345 -0.716060 -2.679638 21.684737 14.176772 -8.080940 -3.741115 4.890861 8.253577 37.497452 47.588797 3.847418 46.020213 -0.612125 0.000000 0.000000 0.000000 
50.381027 101.036797 27.258682 0.000000 0.000000 0.000000 -0.383302 64.423983 2.828093 -33.973518 2.307111 4.365336 13.008514 9.903996 1.973027 16.588506 -7.543498 -1.615753 7.098995 0.326772 -0.089826 0.000000 0.000000 0.000000 1.235026 67.046585 1.377417 14.884878 -14.796128 1.207062 6.021452 7.342148 -6.365187 -19.120659 -32.578394 11.318332 1.767059 9.098564 -17.954730 0.000000 0.000000 0.000000 0.114954 67.205797 1.239158 6.688226 5.660705 -0.790853 -1.742874 4.040933 -0.067753 0.190981 -0.172525 -0.005121 0.000000 0.000000 0.000000 -1.610285 5.702122 0.268060 10.057463 -8.394490 -4.487276 -11.991210 -34.390679 -8.416594 0.000000 0.000000 0.000000 -3.991785 4.912669 -0.747388 -6.878877 -11.058810 -13.670018 2.619266 7.470409 -4.466067 30.928698 -54.126906 -31.275873 -11.038969 -60.120391 -7.092093 0.000000 0.000000 0.000000 -2.315783 4.947976 -0.464960 -2.534019 21.159110 13.948987 -7.682511 -3.747356 4.846387 10.833163 36.911558 45.666365 4.134946 52.479916 -1.616939 0.000000 0.000000 0.000000 
49.224419 100.847519 27.187834 0.000000 0.000000 0.000000 -0.739990 61.489379 3.111306 -33.580202 3.387129 5.452739 13.367650 9.363612 1.689700 16.446807 -6.822756 -1.364715 7.194344 0.205019 0.370117 0.000000 0.000000 0.000000 0.251065 63.933651 2.163561 13.530870 -14.870703 0.658945 6.855648 8.060100 -6.314357 -18.178748 -30.969123 12.542567 1.888499 8.739902 -17.804777 0.000000 0.000000 0.000000 -0.583581 64.551271 1.904593 6.677184 4.868989 -0.406278 -1.589902 3.498189 0.117237 0.168290 -0.118196 -0.031933 0.000000 0.000000 0.000000 -1.520368 5.093224 0.472621 8.089322 -7.291762 -5.809201 -11.100464 -30.109188 -8.305524 0.000000 0.000000 0.000000 -3.874497 4.308159 -0.549932 -6.894747 -11.142338 -13.525848 2.296008 6.954195 -4.142236 29.238722 -52.712702 -34.519387 -10.988489 -61.499296 -7.027571 0.000000 0.000000 0.000000 -2.221041 4.350206 -0.240438 -2.399513 20.412570 13.751870 -7.098193 -3.687200 4.711597 12.517229 35.899707 44.724553 4.625849 58.360954 -2.769657 0.000000 0.000000 0.000000 
48.017872 100.742516 27.118126 0.000000 0.000000 0.000000 -0.995144 58.785567 3.274629 -33.135283 4.359815 6.478644 13.399056 8.478682 1.427957 16.534669 -6.147167 -1.294802 7.200414 0.086278 0.699328 0.000000 0.000000 0.000000 -0.307119 60.996007 2.569784 12.192562 -14.977871 0.142873 7.229717 8.830510 -6.206036 -17.291720 -28.885717 13.320579 1.297548 8.273672 -17.130212 0.000000 0.000000 0.000000 -1.034835 61.769144 2.342829 6.501140 4.191552 -0.082847 -1.443295 3.086013 0.275329 0.119805 -0.013209 -0.062959 0.000000 0.000000 0.000000 -1.477991 4.649823 0.666247 6.143356 -6.361523 -6.856725 -10.112790 -26.890666 -8.383761 0.000000 0.000000 0.000000 -3.757307 3.843614 -0.373650 -6.829915 -11.094554 -13.270532 2.137848 6.324706 -3.933055 27.605186 -51.617242 -37.593730 -10.655985 -62.366075 -6.634664 0.000000 0.000000 0.000000 -2.101794 3.913923 -0.035066 -2.274549 19.493889 13.595556 -6.504617 -3.748559 4.627174 13.131584 34.505842 44.792992 5.097325 63.079946 -3.822266 0.000000 0.000000 0.000000 
46.762722 100.675179 27.094498 0.000000 0.000000 0.000000 -1.238010 56.355126 3.347359 -32.756611 5.314851 7.517686 13.267670 7.486404 1.170060 16.829337 -5.417795 -1.374737 6.936393 -0.000012 0.927267 0.000000 0.000000 0.000000 -0.503138 58.367464 2.643169 11.089779 -15.088105 -0.159495 7.132156 9.396108 -6.053406 -17.117552 -26.698928 12.789947 1.189518 7.545572 -15.970987 0.000000 0.000000 0.000000 -1.383251 59.052805 2.606194 6.223616 3.637976 0.165752 -1.272878 2.785329 0.417525 0.074252 0.104310 -0.080565 0.000000 0.000000 0.000000 -1.485271 4.344299 0.864880 4.381311 -5.645383 -7.592414 -9.148133 -24.731292 -8.615482 0.000000 0.000000 0.000000 -3.634439 3.507755 -0.217564 -6.680462 -10.912132 -12.918598 2.145258 5.946045 -3.901600 25.840747 -50.859392 -40.463099 -10.101276 -62.879582 -6.010242 0.000000 0.000000 0.000000 -1.923514 3.617937 0.157691 -2.165744 18.491515 13.438118 -5.962813 -3.958547 4.664054 12.713161 32.872949 45.729056 5.238764 66.574038 -4.465584 0.000000 0.000000 0.000000 
